<?xml version="1.0" encoding="UTF-8"?>
<svg width="24px" height="24px" viewBox="0 0 24 24" version="1.1" xmlns="http://www.w3.org/2000/svg">
    <path d="M12 15.2C10.2 15.2 8.8 13.8 8.8 12C8.8 10.2 10.2 8.8 12 8.8C13.8 8.8 15.2 10.2 15.2 12C15.2 13.8 13.8 15.2 12 15.2ZM12 7C9.2 7 7 9.2 7 12C7 14.8 9.2 17 12 17C14.8 17 17 14.8 17 12C17 9.2 14.8 7 12 7Z" fill="#a12525"/>
    <path d="M20 5H17L15.8 3H8.2L7 5H4C2.9 5 2 5.9 2 7V17C2 18.1 2.9 19 4 19H20C21.1 19 22 18.1 22 17V7C22 5.9 21.1 5 20 5ZM20 17H4V7H7.2L8.4 5H15.6L16.8 7H20V17Z" fill="#a12525"/>
</svg> 